<?xml version="1.0" encoding="UTF-8" standalone="no"?>
<!DOCTYPE svg PUBLIC "-//W3C//DTD SVG 1.1//EN"
 "http://www.w3.org/Graphics/SVG/1.1/DTD/svg11.dtd">
<!-- Generated by graphviz version 2.38.0 (20140413.2041)
 -->
<!-- Title: %3 Pages: 1 -->
<svg width="270pt" height="110pt"
 viewBox="0.00 0.00 270.29 110.43" xmlns="http://www.w3.org/2000/svg" xmlns:xlink="http://www.w3.org/1999/xlink">
<g id="graph0" class="graph" transform="scale(1 1) rotate(0) translate(4 106.426)">
<title>%3</title>
<polygon fill="white" stroke="none" points="-4,4 -4,-106.426 266.291,-106.426 266.291,4 -4,4"/>
<!-- F_2 -->
<g id="node1" class="node"><title>F_2</title>
<ellipse fill="none" stroke="black" stroke-width="1.5" cx="34.6482" cy="-81.2132" rx="34.7971" ry="21.4286"/>
<text text-anchor="middle" x="34.6482" y="-76.2132" font-family="Times New Roman,serif" font-size="20.00">F_2</text>
</g>
<!-- a_max -->
<g id="node2" class="node"><title>a_max</title>
<ellipse fill="none" stroke="black" stroke-width="1.5" cx="212.794" cy="-51.2132" rx="49.4949" ry="21.4286"/>
<text text-anchor="middle" x="212.794" y="-46.2132" font-family="Times New Roman,serif" font-size="20.00">a_max</text>
</g>
<!-- F_2&#45;&gt;a_max -->
<g id="edge1" class="edge"><title>F_2&#45;&gt;a_max</title>
<path fill="none" stroke="black" stroke-width="1.5" d="M68.3671,-75.6407C93.1088,-71.4269 127.652,-65.5438 156.638,-60.607"/>
<polygon fill="black" stroke="black" stroke-width="1.5" points="157.364,-64.0339 166.634,-58.9046 156.188,-57.1333 157.364,-64.0339"/>
</g>
<!-- m -->
<g id="node3" class="node"><title>m</title>
<ellipse fill="none" stroke="black" stroke-width="1.5" cx="34.6482" cy="-21.2132" rx="27" ry="21.4286"/>
<text text-anchor="middle" x="34.6482" y="-16.2132" font-family="Times New Roman,serif" font-size="20.00">m</text>
</g>
<!-- m&#45;&gt;a_max -->
<g id="edge2" class="edge"><title>m&#45;&gt;a_max</title>
<path fill="none" stroke="black" stroke-width="1.5" d="M61.2613,-25.5755C86.0579,-29.7986 124.464,-36.3397 156.275,-41.7576"/>
<polygon fill="black" stroke="black" stroke-width="1.5" points="155.9,-45.2441 166.346,-43.4728 157.076,-38.3435 155.9,-45.2441"/>
</g>
</g>
</svg>
