<?xml version="1.0" encoding="UTF-8" standalone="no"?>
<!DOCTYPE svg PUBLIC "-//W3C//DTD SVG 1.1//EN"
 "http://www.w3.org/Graphics/SVG/1.1/DTD/svg11.dtd">
<!-- Generated by graphviz version 2.38.0 (20140413.2041)
 -->
<!-- Title: %3 Pages: 1 -->
<svg width="256pt" height="110pt"
 viewBox="0.00 0.00 256.15 110.43" xmlns="http://www.w3.org/2000/svg" xmlns:xlink="http://www.w3.org/1999/xlink">
<g id="graph0" class="graph" transform="scale(1 1) rotate(0) translate(4 106.426)">
<title>%3</title>
<polygon fill="white" stroke="none" points="-4,4 -4,-106.426 252.149,-106.426 252.149,4 -4,4"/>
<!-- F_1 -->
<g id="node1" class="node"><title>F_1</title>
<ellipse fill="none" stroke="black" stroke-width="1.5" cx="34.6482" cy="-81.2132" rx="34.7971" ry="21.4286"/>
<text text-anchor="middle" x="34.6482" y="-76.2132" font-family="Times New Roman,serif" font-size="20.00">F_1</text>
</g>
<!-- order -->
<g id="node2" class="node"><title>order</title>
<ellipse fill="none" stroke="black" stroke-width="1.5" cx="205.723" cy="-51.2132" rx="42.3529" ry="21.4286"/>
<text text-anchor="middle" x="205.723" y="-46.2132" font-family="Times New Roman,serif" font-size="20.00">order</text>
</g>
<!-- F_1&#45;&gt;order -->
<g id="edge1" class="edge"><title>F_1&#45;&gt;order</title>
<path fill="none" stroke="black" stroke-width="1.5" d="M68.2475,-75.4289C92.9465,-71.0464 127.303,-64.9503 155.365,-59.9711"/>
<polygon fill="black" stroke="black" stroke-width="1.5" points="156.154,-63.3858 165.389,-58.1925 154.931,-56.4934 156.154,-63.3858"/>
</g>
<!-- F_2 -->
<g id="node3" class="node"><title>F_2</title>
<ellipse fill="none" stroke="black" stroke-width="1.5" cx="34.6482" cy="-21.2132" rx="34.7971" ry="21.4286"/>
<text text-anchor="middle" x="34.6482" y="-16.2132" font-family="Times New Roman,serif" font-size="20.00">F_2</text>
</g>
<!-- F_2&#45;&gt;order -->
<g id="edge2" class="edge"><title>F_2&#45;&gt;order</title>
<path fill="none" stroke="black" stroke-width="1.5" d="M68.2475,-26.9975C92.9465,-31.38 127.303,-37.4761 155.365,-42.4553"/>
<polygon fill="black" stroke="black" stroke-width="1.5" points="154.931,-45.933 165.389,-44.2339 156.154,-39.0406 154.931,-45.933"/>
</g>
</g>
</svg>
