<?xml version="1.0" encoding="UTF-8" standalone="no"?>
<!DOCTYPE svg PUBLIC "-//W3C//DTD SVG 1.1//EN"
 "http://www.w3.org/Graphics/SVG/1.1/DTD/svg11.dtd">
<!-- Generated by graphviz version 2.38.0 (20140413.2041)
 -->
<!-- Title: %3 Pages: 1 -->
<svg width="297pt" height="350pt"
 viewBox="0.00 0.00 297.02 350.43" xmlns="http://www.w3.org/2000/svg" xmlns:xlink="http://www.w3.org/1999/xlink">
<g id="graph0" class="graph" transform="scale(1 1) rotate(0) translate(4 346.426)">
<title>%3</title>
<polygon fill="white" stroke="none" points="-4,4 -4,-346.426 293.019,-346.426 293.019,4 -4,4"/>
<!-- F_1 -->
<g id="node1" class="node"><title>F_1</title>
<ellipse fill="none" stroke="black" stroke-width="1.5" cx="40.3051" cy="-321.213" rx="34.7971" ry="21.4286"/>
<text text-anchor="middle" x="40.3051" y="-316.213" font-family="Times New Roman,serif" font-size="20.00">F_1</text>
</g>
<!-- E_rem -->
<g id="node2" class="node"><title>E_rem</title>
<ellipse fill="none" stroke="black" stroke-width="1.5" cx="238.815" cy="-171.213" rx="50.41" ry="21.4286"/>
<text text-anchor="middle" x="238.815" y="-166.213" font-family="Times New Roman,serif" font-size="20.00">E_rem</text>
</g>
<!-- F_1&#45;&gt;E_rem -->
<g id="edge1" class="edge"><title>F_1&#45;&gt;E_rem</title>
<path fill="none" stroke="black" stroke-width="1.5" d="M62.7091,-304.875C97.1635,-278.575 165.137,-226.69 205.511,-195.871"/>
<polygon fill="black" stroke="black" stroke-width="1.5" points="207.861,-198.481 213.686,-189.631 203.613,-192.917 207.861,-198.481"/>
</g>
<!-- F_2 -->
<g id="node3" class="node"><title>F_2</title>
<ellipse fill="none" stroke="black" stroke-width="1.5" cx="40.3051" cy="-261.213" rx="34.7971" ry="21.4286"/>
<text text-anchor="middle" x="40.3051" y="-256.213" font-family="Times New Roman,serif" font-size="20.00">F_2</text>
</g>
<!-- F_2&#45;&gt;E_rem -->
<g id="edge2" class="edge"><title>F_2&#45;&gt;E_rem</title>
<path fill="none" stroke="black" stroke-width="1.5" d="M68.6289,-248.699C101.295,-233.738 156.359,-208.519 194.764,-190.93"/>
<polygon fill="black" stroke="black" stroke-width="1.5" points="196.511,-193.98 204.145,-186.634 193.596,-187.615 196.511,-193.98"/>
</g>
<!-- m -->
<g id="node4" class="node"><title>m</title>
<ellipse fill="none" stroke="black" stroke-width="1.5" cx="40.3051" cy="-201.213" rx="27" ry="21.4286"/>
<text text-anchor="middle" x="40.3051" y="-196.213" font-family="Times New Roman,serif" font-size="20.00">m</text>
</g>
<!-- m&#45;&gt;E_rem -->
<g id="edge3" class="edge"><title>m&#45;&gt;E_rem</title>
<path fill="none" stroke="black" stroke-width="1.5" d="M66.9953,-197.291C95.8091,-192.892 143.434,-185.622 181.088,-179.873"/>
<polygon fill="black" stroke="black" stroke-width="1.5" points="182.062,-183.265 191.42,-178.296 181.006,-176.345 182.062,-183.265"/>
</g>
<!-- v_0 -->
<g id="node5" class="node"><title>v_0</title>
<ellipse fill="none" stroke="black" stroke-width="1.5" cx="40.3051" cy="-141.213" rx="33.4697" ry="21.4286"/>
<text text-anchor="middle" x="40.3051" y="-136.213" font-family="Times New Roman,serif" font-size="20.00">v_0</text>
</g>
<!-- v_0&#45;&gt;E_rem -->
<g id="edge4" class="edge"><title>v_0&#45;&gt;E_rem</title>
<path fill="none" stroke="black" stroke-width="1.5" d="M72.8778,-146.033C102.008,-150.48 145.944,-157.188 181.147,-162.562"/>
<polygon fill="black" stroke="black" stroke-width="1.5" points="180.88,-166.062 191.293,-164.111 181.936,-159.142 180.88,-166.062"/>
</g>
<!-- d_1c -->
<g id="node6" class="node"><title>d_1c</title>
<ellipse fill="none" stroke="black" stroke-width="1.5" cx="40.3051" cy="-81.2132" rx="40.1111" ry="21.4286"/>
<text text-anchor="middle" x="40.3051" y="-76.2132" font-family="Times New Roman,serif" font-size="20.00">d_1c</text>
</g>
<!-- d_1c&#45;&gt;E_rem -->
<g id="edge5" class="edge"><title>d_1c&#45;&gt;E_rem</title>
<path fill="none" stroke="black" stroke-width="1.5" d="M71.1507,-94.8823C104.111,-109.978 157.462,-134.412 194.902,-151.56"/>
<polygon fill="black" stroke="black" stroke-width="1.5" points="193.507,-154.77 204.056,-155.752 196.422,-148.406 193.507,-154.77"/>
</g>
<!-- d_2c -->
<g id="node7" class="node"><title>d_2c</title>
<ellipse fill="none" stroke="black" stroke-width="1.5" cx="40.3051" cy="-21.2132" rx="40.1111" ry="21.4286"/>
<text text-anchor="middle" x="40.3051" y="-16.2132" font-family="Times New Roman,serif" font-size="20.00">d_2c</text>
</g>
<!-- d_2c&#45;&gt;E_rem -->
<g id="edge6" class="edge"><title>d_2c&#45;&gt;E_rem</title>
<path fill="none" stroke="black" stroke-width="1.5" d="M64.2318,-38.7137C99.1101,-65.337 165.637,-116.119 205.434,-146.496"/>
<polygon fill="black" stroke="black" stroke-width="1.5" points="203.427,-149.367 213.499,-152.653 207.674,-143.803 203.427,-149.367"/>
</g>
</g>
</svg>
