<?xml version="1.0" encoding="UTF-8" standalone="no"?>
<!DOCTYPE svg PUBLIC "-//W3C//DTD SVG 1.1//EN"
 "http://www.w3.org/Graphics/SVG/1.1/DTD/svg11.dtd">
<!-- Generated by graphviz version 2.38.0 (20140413.2041)
 -->
<!-- Title: %3 Pages: 1 -->
<svg width="520pt" height="237pt"
 viewBox="0.00 0.00 519.65 236.85" xmlns="http://www.w3.org/2000/svg" xmlns:xlink="http://www.w3.org/1999/xlink">
<g id="graph0" class="graph" transform="scale(1 1) rotate(0) translate(4 232.853)">
<title>%3</title>
<polygon fill="white" stroke="none" points="-4,4 -4,-232.853 515.648,-232.853 515.648,4 -4,4"/>
<!-- F_2 -->
<g id="node1" class="node"><title>F_2</title>
<ellipse fill="none" stroke="black" stroke-width="1.5" cx="107" cy="-21.2132" rx="34.7971" ry="21.4286"/>
<text text-anchor="middle" x="107" y="-16.2132" font-family="Times New Roman,serif" font-size="20.00">F_2</text>
</g>
<!-- E_rem -->
<g id="node2" class="node"><title>E_rem</title>
<ellipse fill="none" stroke="black" stroke-width="1.5" cx="236" cy="-207.64" rx="50.41" ry="21.4286"/>
<text text-anchor="middle" x="236" y="-202.64" font-family="Times New Roman,serif" font-size="20.00">E_rem</text>
</g>
<!-- F_2&#45;&gt;E_rem -->
<g id="edge1" class="edge"><title>F_2&#45;&gt;E_rem</title>
<path fill="none" stroke="black" stroke-width="1.5" d="M120.079,-40.9119C142.791,-73.3822 189.641,-140.361 216.303,-178.48"/>
<polygon fill="black" stroke="black" stroke-width="1.5" points="213.704,-180.871 222.304,-187.059 219.44,-176.858 213.704,-180.871"/>
</g>
<!-- a_max -->
<g id="node3" class="node"><title>a_max</title>
<ellipse fill="none" stroke="black" stroke-width="1.5" cx="51" cy="-207.64" rx="49.4949" ry="21.4286"/>
<text text-anchor="middle" x="51" y="-202.64" font-family="Times New Roman,serif" font-size="20.00">a_max</text>
</g>
<!-- F_2&#45;&gt;a_max -->
<g id="edge2" class="edge"><title>F_2&#45;&gt;a_max</title>
<path fill="none" stroke="black" stroke-width="1.5" d="M100.9,-42.3011C91.0541,-74.7284 71.6015,-138.792 60.1081,-176.644"/>
<polygon fill="black" stroke="black" stroke-width="1.5" points="56.6486,-175.991 57.0921,-186.576 63.3466,-178.025 56.6486,-175.991"/>
</g>
<!-- order -->
<g id="node4" class="node"><title>order</title>
<ellipse fill="none" stroke="black" stroke-width="1.5" cx="433" cy="-207.64" rx="42.3529" ry="21.4286"/>
<text text-anchor="middle" x="433" y="-202.64" font-family="Times New Roman,serif" font-size="20.00">order</text>
</g>
<!-- F_2&#45;&gt;order -->
<g id="edge3" class="edge"><title>F_2&#45;&gt;order</title>
<path fill="none" stroke="black" stroke-width="1.5" d="M131.771,-36.2265C188.82,-68.5006 329.698,-148.199 396.601,-186.048"/>
<polygon fill="black" stroke="black" stroke-width="1.5" points="395.106,-189.223 405.533,-191.101 398.553,-183.131 395.106,-189.223"/>
</g>
<!-- m -->
<g id="node5" class="node"><title>m</title>
<ellipse fill="none" stroke="black" stroke-width="1.5" cx="27" cy="-21.2132" rx="27" ry="21.4286"/>
<text text-anchor="middle" x="27" y="-16.2132" font-family="Times New Roman,serif" font-size="20.00">m</text>
</g>
<!-- m&#45;&gt;E_rem -->
<g id="edge4" class="edge"><title>m&#45;&gt;E_rem</title>
<path fill="none" stroke="black" stroke-width="1.5" d="M44.4597,-37.6201C80.4797,-69.405 163.333,-142.517 207.331,-181.342"/>
<polygon fill="black" stroke="black" stroke-width="1.5" points="205.26,-184.182 215.074,-188.174 209.892,-178.933 205.26,-184.182"/>
</g>
<!-- m&#45;&gt;a_max -->
<g id="edge5" class="edge"><title>m&#45;&gt;a_max</title>
<path fill="none" stroke="black" stroke-width="1.5" d="M29.6601,-42.6547C33.87,-75.0056 42.0937,-138.2 47.0118,-175.992"/>
<polygon fill="black" stroke="black" stroke-width="1.5" points="43.6033,-176.923 48.3645,-186.388 50.5447,-176.02 43.6033,-176.923"/>
</g>
<!-- F_1 -->
<g id="node6" class="node"><title>F_1</title>
<ellipse fill="none" stroke="black" stroke-width="1.5" cx="477" cy="-21.2132" rx="34.7971" ry="21.4286"/>
<text text-anchor="middle" x="477" y="-16.2132" font-family="Times New Roman,serif" font-size="20.00">F_1</text>
</g>
<!-- F_1&#45;&gt;E_rem -->
<g id="edge6" class="edge"><title>F_1&#45;&gt;E_rem</title>
<path fill="none" stroke="black" stroke-width="1.5" d="M456.034,-38.2572C413.706,-70.6491 317.821,-144.026 267.764,-182.332"/>
<polygon fill="black" stroke="black" stroke-width="1.5" points="265.371,-179.756 259.556,-188.613 269.625,-185.315 265.371,-179.756"/>
</g>
<!-- F_1&#45;&gt;order -->
<g id="edge7" class="edge"><title>F_1&#45;&gt;order</title>
<path fill="none" stroke="black" stroke-width="1.5" d="M472.207,-42.3011C464.491,-74.6431 449.267,-138.455 440.228,-176.344"/>
<polygon fill="black" stroke="black" stroke-width="1.5" points="436.77,-175.756 437.854,-186.296 443.579,-177.381 436.77,-175.756"/>
</g>
<!-- v_0 -->
<g id="node7" class="node"><title>v_0</title>
<ellipse fill="none" stroke="black" stroke-width="1.5" cx="193" cy="-21.2132" rx="33.4697" ry="21.4286"/>
<text text-anchor="middle" x="193" y="-16.2132" font-family="Times New Roman,serif" font-size="20.00">v_0</text>
</g>
<!-- v_0&#45;&gt;E_rem -->
<g id="edge8" class="edge"><title>v_0&#45;&gt;E_rem</title>
<path fill="none" stroke="black" stroke-width="1.5" d="M197.684,-42.3011C205.224,-74.6431 220.102,-138.455 228.936,-176.344"/>
<polygon fill="black" stroke="black" stroke-width="1.5" points="225.577,-177.352 231.257,-186.296 232.395,-175.762 225.577,-177.352"/>
</g>
<!-- d_1c -->
<g id="node8" class="node"><title>d_1c</title>
<ellipse fill="none" stroke="black" stroke-width="1.5" cx="285" cy="-21.2132" rx="40.1111" ry="21.4286"/>
<text text-anchor="middle" x="285" y="-16.2132" font-family="Times New Roman,serif" font-size="20.00">d_1c</text>
</g>
<!-- d_1c&#45;&gt;E_rem -->
<g id="edge9" class="edge"><title>d_1c&#45;&gt;E_rem</title>
<path fill="none" stroke="black" stroke-width="1.5" d="M279.663,-42.3011C271.07,-74.6431 254.116,-138.455 244.049,-176.344"/>
<polygon fill="black" stroke="black" stroke-width="1.5" points="240.59,-175.732 241.405,-186.296 247.356,-177.53 240.59,-175.732"/>
</g>
<!-- d_2c -->
<g id="node9" class="node"><title>d_2c</title>
<ellipse fill="none" stroke="black" stroke-width="1.5" cx="384" cy="-21.2132" rx="40.1111" ry="21.4286"/>
<text text-anchor="middle" x="384" y="-16.2132" font-family="Times New Roman,serif" font-size="20.00">d_2c</text>
</g>
<!-- d_2c&#45;&gt;E_rem -->
<g id="edge10" class="edge"><title>d_2c&#45;&gt;E_rem</title>
<path fill="none" stroke="black" stroke-width="1.5" d="M368.995,-40.9119C342.759,-73.6043 288.451,-141.28 257.973,-179.259"/>
<polygon fill="black" stroke="black" stroke-width="1.5" points="255.018,-177.348 251.489,-187.338 260.478,-181.729 255.018,-177.348"/>
</g>
</g>
</svg>
